<?xml version="1.0" encoding="UTF-8" standalone="no"?>
<svg
   version="1.1"
   x="0px"
   y="0px"
   viewBox="0 0 60 59.964001"
   enable-background="new 0 0 100 100"
   xml:space="preserve"
   id="svg8"
   sodipodi:docname="solar-eclipse-white.svg"
   inkscape:version="1.3 (0e150ed6c4, 2023-07-21)"
   width="60"
   height="59.964001"
   xmlns:inkscape="http://www.inkscape.org/namespaces/inkscape"
   xmlns:sodipodi="http://sodipodi.sourceforge.net/DTD/sodipodi-0.dtd"
   xmlns="http://www.w3.org/2000/svg"
   xmlns:svg="http://www.w3.org/2000/svg"><defs
     id="defs8"><inkscape:path-effect
       effect="offset"
       id="path-effect8"
       is_visible="true"
       lpeversion="1.2"
       linejoin_type="miter"
       unit="mm"
       offset="0"
       miter_limit="4"
       attempt_force_join="false"
       update_on_knot_move="true" /></defs><sodipodi:namedview
     id="namedview8"
     pagecolor="#505050"
     bordercolor="#eeeeee"
     borderopacity="1"
     inkscape:showpageshadow="0"
     inkscape:pageopacity="0"
     inkscape:pagecheckerboard="0"
     inkscape:deskcolor="#505050"
     inkscape:zoom="6.488"
     inkscape:cx="29.978422"
     inkscape:cy="42.463009"
     inkscape:window-width="2560"
     inkscape:window-height="1008"
     inkscape:window-x="0"
     inkscape:window-y="0"
     inkscape:window-maximized="1"
     inkscape:current-layer="svg8" /><g
     display="none"
     id="g2"
     transform="translate(-20,-20.022)"><circle
       display="inline"
       fill="none"
       stroke="#000000"
       stroke-width="4"
       stroke-linecap="round"
       stroke-miterlimit="10"
       cx="50"
       cy="50"
       r="30"
       id="circle1" /><path
       display="inline"
       fill="none"
       stroke="#000000"
       stroke-width="4"
       stroke-linecap="round"
       stroke-miterlimit="10"
       d="M 40,32.676 C 42.942,30.974 46.357,30 50,30 c 11.046,0 20,8.954 20,20 0,11.046 -8.954,20 -20,20 -3.643,0 -7.059,-0.974 -10.001,-2.676"
       id="path1" /><path
       display="inline"
       fill="none"
       stroke="#000000"
       stroke-width="4"
       stroke-miterlimit="10"
       d="M 49.679,79.999 C 29.853,60.174 29.868,40.132 50,20"
       id="path2" /></g><g
     display="none"
     id="g3"
     transform="translate(-20,-20.022)"><path
       display="inline"
       d="M 50,18 C 32.355,18 18,32.355 18,50 18,67.645 32.355,82 50,82 67.645,82 82,67.645 82,50 82,32.355 67.645,18 50,18 Z M 22,50 C 22,36.284 31.916,24.848 44.954,22.464 36.961,31.61 32.894,40.89 32.855,50.106 32.816,59.27 36.759,68.456 44.583,77.469 31.728,74.939 22,63.586 22,50 Z M 50,32 c 9.925,0 18,8.075 18,18 0,9.925 -8.075,18 -18,18 -3.125,0 -6.196,-0.815 -8.893,-2.351 C 38.265,60.45 36.833,55.26 36.855,50.123 36.877,44.863 38.415,39.53 41.438,34.173 44.055,32.756 47.001,32 50,32 Z m 0.514,45.987 C 48.357,75.783 46.443,73.575 44.794,71.366 46.491,71.778 48.238,72 50,72 62.131,72 72,62.131 72,50 72,37.869 62.131,28 50,28 c -1.639,0 -3.264,0.194 -4.85,0.551 1.646,-2.176 3.545,-4.354 5.676,-6.53 C 65.884,22.461 78,34.838 78,50 78,65.267 65.716,77.711 50.514,77.987 Z"
       id="path3" /></g><g
     id="g7"
     style="fill:#f9f9f9"
     transform="translate(-20,-20.022)"><g
       id="g6"
       style="fill:#f9f9f9"><path
         d="M 45.244,20.379 C 30.936,22.659 20,35.05 20,50 20,64.811 30.736,77.106 44.848,79.55 28.677,59.994 28.811,40.125 45.244,20.379 Z"
         id="path4"
         style="fill:#f9f9f9" /><path
         d="m 50.877,20.022 c -2.722,2.964 -5.062,5.914 -6.993,8.853 C 45.863,28.304 47.921,28 50,28 c 12.131,0 22,9.869 22,22 0,12.131 -9.869,22 -22,22 -2.211,0 -4.398,-0.344 -6.491,-0.989 1.925,2.984 4.281,5.975 7.035,8.975 C 66.861,79.695 80,66.386 80,50 80,33.726 67.039,20.488 50.877,20.022 Z"
         id="path5"
         style="fill:#f9f9f9" /><path
         d="m 40.358,65.363 c 0.22,0.04 0.438,0.111 0.643,0.229 C 43.723,67.168 46.835,68 50,68 59.925,68 68,59.925 68,50 68,40.075 59.925,32 50,32 c -3.166,0 -6.277,0.832 -8.998,2.407 -0.12,0.069 -0.245,0.124 -0.371,0.167 -5.004,10.319 -5.099,20.533 -0.273,30.789 z"
         id="path6"
         style="fill:#f9f9f9" /></g></g></svg>
